<?xml version="1.0" standalone="no"?>
<!DOCTYPE svg PUBLIC "-//W3C//DTD SVG 20010904//EN"
 "http://www.w3.org/TR/2001/REC-SVG-20010904/DTD/svg10.dtd">
<svg version="1.0" xmlns="http://www.w3.org/2000/svg"
 width="605.000000pt" height="310.000000pt" viewBox="0 0 605.000000 310.000000"
 preserveAspectRatio="xMidYMid meet">

<g transform="translate(0.000000,310.000000) scale(0.100000,-0.100000)"
fill="#ffffff" stroke="none">
<path d="M1047 2336 c-99 -36 -169 -119 -182 -217 -21 -151 105 -291 260 -291
117 0 218 75 250 187 58 198 -137 389 -328 321z"/>
<path d="M3702 1909 c-153 -15 -217 -66 -209 -169 4 -49 8 -57 47 -91 24 -21
55 -41 69 -44 32 -8 51 -23 51 -42 0 -22 -37 -30 -108 -21 -36 4 -67 6 -69 4
-2 -2 1 -26 8 -54 l10 -51 57 -12 c73 -15 191 -5 240 20 56 29 93 73 98 117 7
57 -20 94 -100 135 -88 45 -89 80 -1 94 88 14 84 11 78 57 -3 24 -12 49 -21
56 -17 13 -26 13 -150 1z"/>
<path d="M1475 1900 c-160 -26 -267 -196 -221 -352 46 -160 212 -246 372 -191
68 23 145 102 169 172 68 205 -106 407 -320 371z"/>
<path d="M690 1872 c-23 -12 -43 -35 -58 -64 -31 -62 -23 -109 30 -162 37 -38
39 -38 98 -34 49 3 65 10 90 33 119 114 -14 303 -160 227z"/>
<path d="M1960 1826 c0 -73 8 -83 65 -88 l40 -3 -2 -75 c-2 -41 0 -108 3 -148
l6 -73 101 3 102 3 10 150 10 150 60 0 60 0 0 70 0 70 -227 3 -228 2 0 -64z"/>
<path d="M2502 1873 c-12 -30 -6 -375 7 -407 l12 -29 176 6 c96 3 178 9 181
12 3 3 1 22 -4 43 l-9 37 -73 -4 -73 -3 3 43 3 44 75 5 75 5 -2 33 c0 18 -4
36 -8 40 -3 3 -30 5 -58 4 -69 -3 -93 14 -80 54 9 28 13 29 92 38 78 8 82 9
77 30 -3 11 -6 26 -6 32 0 21 -88 34 -235 34 -129 0 -146 -2 -153 -17z"/>
<path d="M3002 1873 c-12 -30 -6 -375 7 -407 l12 -29 175 6 c97 3 178 8 182
11 3 3 1 23 -4 44 l-9 37 -73 -4 -73 -3 3 43 3 44 75 5 75 5 -2 33 c0 18 -3
36 -6 39 -3 3 -33 6 -66 7 -72 2 -87 13 -74 53 9 27 13 28 92 37 l82 8 -7 37
c-4 20 -9 39 -11 44 -2 4 -87 7 -189 7 -166 0 -185 -2 -192 -17z"/>
<path d="M3970 1827 c0 -73 10 -87 62 -87 l38 0 0 -134 c0 -74 3 -141 6 -150
9 -24 199 -24 208 0 3 9 6 71 6 139 0 147 6 158 79 153 l46 -3 3 73 3 72 -226
0 -225 0 0 -63z"/>
<path d="M4507 1883 c-12 -12 -7 -366 6 -403 l12 -35 178 2 c98 1 181 3 183 6
2 2 1 22 -4 43 l-8 39 -72 -4 -72 -3 0 46 0 45 78 3 77 3 -2 30 c-3 36 -28 57
-60 49 -13 -4 -39 -3 -58 0 -30 6 -35 11 -35 34 0 43 10 49 93 57 76 7 77 7
77 35 0 61 5 59 -199 60 -104 0 -191 -3 -194 -7z"/>
<path d="M5011 1882 c-20 -14 -10 -420 11 -433 15 -10 142 -12 176 -3 20 6 22
12 22 80 0 41 4 74 8 74 5 0 30 -31 55 -68 26 -38 56 -77 66 -86 18 -16 21
-16 58 3 21 11 51 30 66 43 l29 23 -20 25 c-11 14 -31 42 -46 64 l-26 39 30
34 c24 26 30 43 30 78 0 60 -29 90 -101 109 -70 18 -338 31 -358 18z m273 -88
c31 -30 11 -72 -41 -88 -29 -9 -34 3 -27 58 6 39 10 46 30 46 12 0 30 -7 38
-16z"/>
<path d="M903 1561 c-47 -12 -117 -56 -149 -93 -101 -120 -89 -298 27 -402
139 -125 351 -91 446 71 40 68 45 181 11 254 -34 75 -70 114 -133 144 -58 29
-147 40 -202 26z"/>
</g>
</svg>
